<?xml version="1.0" encoding="UTF-8" standalone="no"?>
<!-- Uploaded to: SVG Repo, www.svgrepo.com, Generator: SVG Repo Mixer Tools -->

<svg
   fill="#000000"
   width="800px"
   height="800px"
   viewBox="0 0 52 52"
   enable-background="new 0 0 52 52"
   xml:space="preserve"
   version="1.1"
   id="svg5441"
   sodipodi:docname="page.svg"
   inkscape:version="1.2 (dc2aedaf03, 2022-05-15)"
   xmlns:inkscape="http://www.inkscape.org/namespaces/inkscape"
   xmlns:sodipodi="http://sodipodi.sourceforge.net/DTD/sodipodi-0.dtd"
   xmlns="http://www.w3.org/2000/svg"
   xmlns:svg="http://www.w3.org/2000/svg"><defs
   id="defs5445" /><sodipodi:namedview
   id="namedview5443"
   pagecolor="#ffffff"
   bordercolor="#666666"
   borderopacity="1.0"
   inkscape:showpageshadow="2"
   inkscape:pageopacity="0.0"
   inkscape:pagecheckerboard="0"
   inkscape:deskcolor="#d1d1d1"
   showgrid="false"
   inkscape:zoom="0.295"
   inkscape:cx="400"
   inkscape:cy="400"
   inkscape:window-width="1858"
   inkscape:window-height="1057"
   inkscape:window-x="54"
   inkscape:window-y="-8"
   inkscape:window-maximized="1"
   inkscape:current-layer="svg5441" />
<g
   id="g5439"
   style="fill:#ffffff">
	<g
   id="g5433"
   style="fill:#ffffff">
		<path
   d="M44.4,19H33.2c-2.6,0-4.2-1.6-4.2-4.2V3.6C29,2.7,28.3,2,27.4,2H10.8C8.2,2,6,4.2,6,6.8v38.4    c0,2.6,2.2,4.8,4.8,4.8h30.4c2.6,0,4.8-2.2,4.8-4.8V20.6C46,19.7,45.3,19,44.4,19z"
   id="path5431"
   style="fill:#ffffff" />
	</g>
	<g
   id="g5437"
   style="fill:#ffffff">
		<path
   d="M45.7,12.9L35.1,2.3C34.9,2.1,34.5,2,34.2,2l0,0C33.6,2,33,2.5,33,3.1v8.5c0,1.8,1.6,3.4,3.4,3.4h8.5    c0.6,0,1.1-0.6,1.1-1.2l0,0C46,13.5,45.9,13.1,45.7,12.9z"
   id="path5435"
   style="fill:#ffffff" />
	</g>
</g>
</svg>
